<?xml version="1.0" encoding="UTF-8" standalone="no"?>
<!-- Created with Inkscape (http://www.inkscape.org/) -->

<svg
   xmlns:dc="http://purl.org/dc/elements/1.1/"
   xmlns:cc="http://creativecommons.org/ns#"
   xmlns:rdf="http://www.w3.org/1999/02/22-rdf-syntax-ns#"
   xmlns:svg="http://www.w3.org/2000/svg"
   xmlns="http://www.w3.org/2000/svg"
   xmlns:xlink="http://www.w3.org/1999/xlink"
   xmlns:sodipodi="http://sodipodi.sourceforge.net/DTD/sodipodi-0.dtd"
   xmlns:inkscape="http://www.inkscape.org/namespaces/inkscape"
   width="210mm"
   height="297mm"
   viewBox="0 0 744.09448819 1052.3622047"
   id="svg4230"
   version="1.1"
   inkscape:version="0.91 r13725"
   sodipodi:docname="Character.svg">
  <defs
     id="defs4232">
    <linearGradient
       inkscape:collect="always"
       id="linearGradient4162">
      <stop
         style="stop-color:#ff8080;stop-opacity:1"
         offset="0"
         id="stop4164" />
      <stop
         style="stop-color:#ffccaa;stop-opacity:1"
         offset="1"
         id="stop4166" />
    </linearGradient>
    <linearGradient
       inkscape:collect="always"
       xlink:href="#linearGradient4162"
       id="linearGradient4168"
       x1="290.71429"
       y1="1501.6479"
       x2="362.14285"
       y2="1501.6479"
       gradientUnits="userSpaceOnUse"
       gradientTransform="translate(4.8955687e-6,0)" />
  </defs>
  <sodipodi:namedview
     id="base"
     pagecolor="#ffffff"
     bordercolor="#666666"
     borderopacity="1.0"
     inkscape:pageopacity="0.0"
     inkscape:pageshadow="2"
     inkscape:zoom="3.959798"
     inkscape:cx="472.07274"
     inkscape:cy="-469.18612"
     inkscape:document-units="px"
     inkscape:current-layer="layer1"
     showgrid="false"
     inkscape:window-width="944"
     inkscape:window-height="1000"
     inkscape:window-x="958"
     inkscape:window-y="3"
     inkscape:window-maximized="0" />
  <metadata
     id="metadata4235">
    <rdf:RDF>
      <cc:Work
         rdf:about="">
        <dc:format>image/svg+xml</dc:format>
        <dc:type
           rdf:resource="http://purl.org/dc/dcmitype/StillImage" />
        <dc:title />
      </cc:Work>
    </rdf:RDF>
  </metadata>
  <g
     inkscape:label="Layer 1"
     inkscape:groupmode="layer"
     id="layer1">
    <path
       style="opacity:1;fill:#d45500;fill-opacity:1;stroke:none"
       d="m 336.80265,1434.2746 c -14.89415,6.6785 -11.44611,30.8353 -12.96027,31.7976 -4.57921,2.9102 -18.99573,-46.5474 0.3488,-58.6002 29.87008,-18.6109 58.01181,-3.3634 64.59737,11.5673 6.32065,14.3302 -30.14506,5.4419 -51.9859,15.2353 z"
       id="path4206"
       inkscape:connector-curvature="0"
       sodipodi:nodetypes="sssss" />
    <circle
       style="opacity:1;fill:#666666;fill-opacity:0.58823529;stroke:none"
       id="path4778"
       cx="378.57144"
       cy="95.954659"
       r="56.407543" />
    <path
       style="opacity:1;fill:#666666;fill-opacity:0.58823529;stroke:none"
       d="m 317.13988,201.25719 c -32.62472,35.52824 -113.84317,110.92582 -122.82943,95.36113 -8.98629,-15.56465 56.69734,-93.30207 91.69149,-126.49906 14.29131,-13.55743 23.22384,-5.61329 31.82231,2.98525 8.59852,8.59849 15.80873,10.19171 -0.68437,28.15268 z"
       id="path4780"
       inkscape:connector-curvature="0"
       sodipodi:nodetypes="sssss" />
    <path
       style="opacity:1;fill:#666666;fill-opacity:0.58823529;stroke:none"
       d="m 162.3089,387.43832 c -11.1985,42.09217 -12.27122,83.466 -23.7008,76.83995 -11.42959,-6.62607 -1.68523,-40.10262 9.51328,-82.19487 11.1985,-42.09226 19.11916,-73.45167 31.04012,-70.23457 11.92094,3.21711 -5.65406,33.49728 -16.8526,75.58949 z"
       id="path4783"
       inkscape:connector-curvature="0"
       sodipodi:nodetypes="sssss" />
    <path
       style="opacity:1;fill:#666666;fill-opacity:0.58823529;stroke:none"
       d="m 136.55363,517.4311 c -8.88513,15.3895 -11.84071,19.0427 -17.53306,19.0427 -5.69234,0 -3.08555,-15.61031 5.79958,-30.99977 8.88512,-15.3895 11.64884,-23.87047 22.74357,-17.46497 11.09468,6.40555 -2.12497,14.03253 -11.01009,29.42204 z"
       id="path4788"
       inkscape:connector-curvature="0"
       sodipodi:nodetypes="sssss" />
    <path
       sodipodi:nodetypes="sssss"
       inkscape:connector-curvature="0"
       id="path4791"
       d="m 438.48166,201.25719 c 32.62471,35.52824 113.84316,110.92582 122.82943,95.36113 8.98629,-15.56465 -56.69734,-93.30207 -91.6915,-126.49906 -14.29131,-13.55743 -23.22384,-5.61329 -31.82231,2.98526 -8.59852,8.59847 -15.80873,10.1917 0.68438,28.15267 z"
       style="opacity:1;fill:#666666;fill-opacity:0.58823529;stroke:none" />
    <path
       sodipodi:nodetypes="sssss"
       inkscape:connector-curvature="0"
       id="path4793"
       d="m 593.31264,387.43832 c 11.1985,42.09217 12.27122,83.466 23.7008,76.83995 11.42959,-6.62607 1.68523,-40.10262 -9.51328,-82.19487 -11.1985,-42.09226 -19.11916,-73.45167 -31.04012,-70.23457 -11.92094,3.21711 5.65406,33.49728 16.8526,75.58949 z"
       style="opacity:1;fill:#666666;fill-opacity:0.58823529;stroke:none" />
    <path
       sodipodi:nodetypes="sssss"
       inkscape:connector-curvature="0"
       id="path4795"
       d="m 619.06791,517.4311 c 8.88513,15.3895 11.84071,19.0427 17.53306,19.0427 5.69234,0 3.08555,-15.61031 -5.79958,-30.99977 -8.88512,-15.3895 -11.64884,-23.87047 -22.74357,-17.46497 -11.09468,6.40555 2.12497,14.03253 11.01009,29.42204 z"
       style="opacity:1;fill:#666666;fill-opacity:0.58823529;stroke:none" />
    <path
       style="opacity:1;fill:#666666;fill-opacity:0.58823529;stroke:none"
       d="m 417.1429,335.21934 c 0,70.21906 1.34955,127.14285 -40.71429,127.14285 -42.06384,0 -26.42857,-56.92379 -26.42857,-127.14285 0,-70.21906 -13.63527,-127.14285 26.42857,-127.14285 40.06384,0 40.71429,56.92379 40.71429,127.14285 z"
       id="path4797"
       inkscape:connector-curvature="0"
       sodipodi:nodetypes="sssss" />
    <path
       sodipodi:nodetypes="sssss"
       inkscape:connector-curvature="0"
       id="path4800"
       d="m 333.97906,484.78081 c -0.44138,46.98228 -13.41719,154.12439 -36.61232,147.98967 -23.19515,-6.1347 -27.95695,-105.39597 -23.01319,-152.09461 2.01898,-19.07138 18.22412,-18.63751 34.68926,-17.50396 16.46511,1.13358 25.15938,-2.14255 24.93625,21.6089 z"
       style="opacity:1;fill:#666666;fill-opacity:0.58823529;stroke:none" />
    <path
       style="opacity:1;fill:#666666;fill-opacity:0.58823529;stroke:none"
       d="m 419.73584,484.78081 c 0.44138,46.98228 13.41719,154.12439 36.61232,147.98967 23.19515,-6.1347 27.95695,-105.39597 23.01319,-152.09461 -2.01898,-19.07138 -18.22412,-18.63751 -34.68926,-17.50396 -16.46511,1.13358 -25.15938,-2.14255 -24.93625,21.6089 z"
       id="path4802"
       inkscape:connector-curvature="0"
       sodipodi:nodetypes="sssss" />
    <path
       sodipodi:nodetypes="sssss"
       inkscape:connector-curvature="0"
       id="path4804"
       d="m 513.97905,806.68118 c -0.44138,-46.98228 -13.41719,-154.12439 -36.61232,-147.98967 -23.19515,6.1347 -27.95695,105.39597 -23.01319,152.09461 2.01898,19.07138 18.22412,18.63751 34.68926,17.50396 16.46511,-1.13358 25.15938,2.14255 24.93625,-21.6089 z"
       style="opacity:1;fill:#666666;fill-opacity:0.58823529;stroke:none" />
    <path
       style="opacity:1;fill:#666666;fill-opacity:0.58823529;stroke:none"
       d="m 245.45013,806.68118 c 0.44138,-46.98228 13.41719,-154.12439 36.61232,-147.98967 23.19515,6.1347 27.95695,105.39597 23.01319,152.09461 -2.01898,19.07138 -18.22412,18.63751 -34.68926,17.50396 -16.46511,-1.13358 -25.15938,2.14255 -24.93625,-21.6089 z"
       id="path4806"
       inkscape:connector-curvature="0"
       sodipodi:nodetypes="sssss" />
    <path
       style="opacity:1;fill:#666666;fill-opacity:0.58823529;stroke:none"
       d="m 298.57514,872.36218 c 0,14.4457 -4.95414,20 -29.51445,20 -24.56031,0 -82.08225,1.01217 -82.63269,-0.85715 -0.55043,-1.86932 59.07238,-39.14285 82.63269,-39.14285 23.56031,0 29.51445,5.5543 29.51445,20 z"
       id="path4808"
       inkscape:connector-curvature="0"
       sodipodi:nodetypes="sssss" />
    <path
       sodipodi:nodetypes="sssss"
       inkscape:connector-curvature="0"
       id="path4811"
       d="m 452.85278,872.36218 c 0,14.4457 4.95414,20 29.51445,20 24.56031,0 82.08225,1.01217 82.63269,-0.85715 0.55043,-1.86932 -59.07238,-39.14285 -82.63269,-39.14285 -23.56031,0 -29.51445,5.5543 -29.51445,20 z"
       style="opacity:1;fill:#666666;fill-opacity:0.58823529;stroke:none" />
    <path
       sodipodi:nodetypes="sssss"
       inkscape:connector-curvature="0"
       id="path4215"
       d="m 508.14216,1627.6807 c 24.55118,-42.371 19.16197,-99.1117 -9.01144,-109.913 -26.70903,-10.2398 -75.83509,39.488 -86.41558,69.4414 -10.58048,29.9537 2.20441,63.2959 28.5559,74.4716 26.35138,11.176 51.00704,-6.6213 66.87112,-34 z"
       style="opacity:1;fill:#d39e8d;fill-opacity:1;stroke:none" />
    <path
       style="opacity:1;fill:#ffccaa;fill-opacity:1;stroke:none"
       d="m 553.56358,1467.7875 c -3e-5,56.9049 -81.8449,147.2766 -138.74985,147.2766 -56.90494,0 -67.32125,-90.3717 -67.32128,-147.2766 -2e-5,-56.905 46.13058,-103.0356 103.03557,-103.0356 56.90498,0 103.03558,46.1306 103.03556,103.0356 z"
       id="path4147"
       inkscape:connector-curvature="0"
       sodipodi:nodetypes="sssss" />
    <path
       style="opacity:1;fill:#d45500;fill-opacity:1;stroke:none"
       d="m 594.76945,1428.3623 c 40.91111,10.0131 -81.03068,187.94 -71.91945,147.7499 3.62156,-15.9748 -5.8448,-28.3621 -1.27758,-47.1156 5.761,-23.6553 5.2942,-65.0055 -2.63059,-87.7058 -16.44742,-47.1131 3.84562,-43.9285 32.39907,-43.9285 28.55346,0 33.9594,28.6824 43.42855,31 z"
       id="path4209"
       inkscape:connector-curvature="0"
       sodipodi:nodetypes="ssssss" />
    <path
       style="opacity:1;fill:url(#linearGradient4168);fill-opacity:1;stroke:none"
       d="m 424.20318,1511.9814 c 8e-5,17.2947 -3.84915,31.3148 -40.67007,31.3148 -36.82092,0 -97.68225,-26.8531 -92.67007,-45.5585 5.01214,-18.7052 29.84923,-17.071 66.67007,-17.071 36.82084,0 66.67003,14.0201 66.67007,31.3147 z"
       id="circle4151"
       inkscape:connector-curvature="0"
       sodipodi:nodetypes="sssss" />
    <ellipse
       style="opacity:1;fill:#000000;fill-opacity:1;stroke:none"
       id="path4154"
       cx="420.72845"
       cy="1471.5754"
       rx="15.657364"
       ry="22.482372" />
    <ellipse
       ry="13.831321"
       rx="6.6020679"
       cy="1453.3928"
       cx="373.75644"
       id="ellipse4156"
       style="opacity:1;fill:#000000;fill-opacity:1;stroke:none" />
    <ellipse
       ry="8.8993139"
       rx="5.8083768"
       cy="1459.7805"
       cx="426.30649"
       id="ellipse4158"
       style="opacity:1;fill:#ffffff;fill-opacity:1;stroke:none" />
    <ellipse
       style="opacity:1;fill:#ffffff;fill-opacity:1;stroke:none"
       id="ellipse4160"
       cx="376.49142"
       cy="1446.248"
       rx="2.146574"
       ry="5.3058019" />
    <path
       sodipodi:nodetypes="sssss"
       inkscape:connector-curvature="0"
       id="path4160"
       d="m 465.65252,1553.9122 c 3.50689,6.0743 -30.00641,45.6557 -53.62199,45.6557 -23.61557,0 -35.40452,-39.5814 -31.89764,-45.6557 3.50689,-6.0738 15.74335,6.8575 39.35895,6.8575 23.61559,0 42.65376,-12.9313 46.16068,-6.8575 z"
       style="opacity:1;fill:#aa0000;fill-opacity:1;stroke:none" />
    <path
       style="opacity:1;fill:#ffffff;fill-opacity:1;stroke:none"
       d="m 465.58703,1553.3734 c -1.08934,6.4844 -31.19588,26.0752 -50.81146,26.0752 -19.61557,0 -34.39388,-20.0785 -35.48324,-26.5628 -1.08909,-6.4843 16.58391,7.7498 40.19951,7.7498 23.61559,0 47.18426,-13.7464 46.09519,-7.2622 z"
       id="path4162"
       inkscape:connector-curvature="0"
       sodipodi:nodetypes="sssss" />
    <g
       id="g4192"
       transform="translate(4.8955687e-6,-2)">
      <ellipse
         transform="matrix(0.98694985,0.16102795,-0.16102795,0.98694985,0,0)"
         ry="36.057392"
         rx="165.84555"
         cy="1307.2682"
         cx="676.28339"
         id="path4164"
         style="opacity:1;fill:#77853a;fill-opacity:1;stroke:none" />
      <path
         sodipodi:nodetypes="sssss"
         inkscape:connector-curvature="0"
         id="ellipse4166"
         d="m 557.30256,1393.6646 c -5.41595,33.195 -46.972,14.9597 -100.47972,6.2294 -53.50772,-8.7302 -98.70482,-4.6491 -93.2888,-37.844 5.41604,-33.1949 59.39419,-91.0957 112.90186,-82.3655 53.50766,8.7301 86.28259,80.7852 80.86666,113.9801 z"
         style="opacity:1;fill:#77853a;fill-opacity:1;stroke:none" />
      <path
         sodipodi:nodetypes="ccccc"
         inkscape:connector-curvature="0"
         id="rect4169"
         d="m 370.78096,1341.788 c 59.54343,21.8584 121.86572,30.8669 186.02072,30.3506 l 1.49184,27.745 C 491.6172,1398.7969 425.5617,1390.5555 360.54761,1367.62 Z"
         style="opacity:1;fill:#545b2b;fill-opacity:1;stroke:none" />
      <path
         inkscape:connector-curvature="0"
         id="path4171"
         d="m 613.73429,1299.0784 -19.72476,21.8114 7.68966,-23.6484 c -46.32503,-2.7915 -101.66526,68.9939 -91.71758,72.903 9.80198,3.8519 51.93771,-27.5615 81.99229,-20.6584 1.2045,0.2766 2.38309,0.5199 3.55901,0.7589 l -11.33297,-20.198 25.64,22.0948 c 6.67922,0.2931 12.56553,-0.4777 17.3967,-2.6789 l -6.93743,-17.0704 15.19515,10.5356 c 2.04133,-2.6717 3.61125,-5.985 4.63824,-10.0404 4.76912,-18.8326 -5.85279,-29.2448 -26.39831,-33.8092 z"
         style="opacity:1;fill:#ffcc00;fill-opacity:1;stroke:none" />
    </g>
    <path
       sodipodi:nodetypes="sssss"
       inkscape:connector-curvature="0"
       id="path4175"
       d="m 355.11166,1436.6078 c 3.71421,1.0253 11.82054,-16.0302 16.09788,-17.4355 4.27733,-1.4054 18.7221,1.2126 18.64371,-2.0476 -0.0784,-3.2602 -12.27123,-13.2731 -21.44995,-7.5274 -6.9627,4.3587 -17.00587,25.9851 -13.29164,27.0105 z"
       style="opacity:1;fill:#d45500;fill-opacity:1;stroke:none" />
    <path
       style="opacity:1;fill:#d45500;fill-opacity:1;stroke:none"
       d="m 464.17288,1453.0886 c -6.56165,1.7582 -21.70758,-24.8384 -29.37465,-26.8928 -7.66706,-2.0544 -33.24419,2.6229 -33.24421,-2.5227 -5e-5,-5.1457 21.25601,-21.4029 37.82548,-12.6874 12.5691,6.6112 31.35503,40.3448 24.79338,42.1029 z"
       id="path4172"
       inkscape:connector-curvature="0"
       sodipodi:nodetypes="sssss" />
    <path
       style="opacity:1;fill:#ffccaa;fill-opacity:1;stroke:none"
       d="m 602.51329,1463.5855 c 6.80183,24.3373 -70.40228,111.3951 -91.61513,59.5147 -3.29156,-8.0503 -1.78404,-13.6939 0.24876,-12.5971 26.59239,14.3484 44.43739,-36.3999 44.42127,-56.577 -0.0143,-17.832 45.62022,4.9189 46.9451,9.6594 z"
       id="path4212"
       inkscape:connector-curvature="0"
       sodipodi:nodetypes="sssss" />
    <circle
       style="opacity:1;fill:#ffa293;fill-opacity:1;stroke:none"
       id="path4170"
       cx="496.5"
       cy="1519.1481"
       r="18.214285" />
    <path
       style="opacity:1;fill:#ffccaa;fill-opacity:1;stroke:none"
       d="m 504.22568,1619.375 c 0.43789,-10.11 -21.47959,10.7381 -45.93016,13.3854 -28.03288,3.0351 -39.8873,-5.5912 -38.3733,4.1354 1.21071,7.7784 19.45814,24.5569 37.48145,25.9765 18.61919,1.4667 45.84167,-20.8634 46.82201,-43.4973 z"
       id="path4217"
       inkscape:connector-curvature="0"
       sodipodi:nodetypes="sssss" />
  </g>
</svg>
