<?xml version="1.0" encoding="UTF-8" standalone="no"?>
<!-- Created with Inkscape (http://www.inkscape.org/) -->

<svg
   xmlns:dc="http://purl.org/dc/elements/1.1/"
   xmlns:cc="http://creativecommons.org/ns#"
   xmlns:rdf="http://www.w3.org/1999/02/22-rdf-syntax-ns#"
   xmlns:svg="http://www.w3.org/2000/svg"
   xmlns="http://www.w3.org/2000/svg"
   xmlns:sodipodi="http://sodipodi.sourceforge.net/DTD/sodipodi-0.dtd"
   xmlns:inkscape="http://www.inkscape.org/namespaces/inkscape"
   width="744.09448819"
   height="1052.3622047"
   id="svg2"
   version="1.1"
   inkscape:version="0.48.5 r10040"
   sodipodi:docname="New document 1">
  <defs
     id="defs4" />
  <sodipodi:namedview
     id="base"
     pagecolor="#ffffff"
     bordercolor="#666666"
     borderopacity="1.0"
     inkscape:pageopacity="0.0"
     inkscape:pageshadow="2"
     inkscape:zoom="0.35355339"
     inkscape:cx="409.6879"
     inkscape:cy="577.86822"
     inkscape:document-units="px"
     inkscape:current-layer="layer1"
     showgrid="false"
     inkscape:window-width="942"
     inkscape:window-height="987"
     inkscape:window-x="960"
     inkscape:window-y="0"
     inkscape:window-maximized="0" />
  <metadata
     id="metadata7">
    <rdf:RDF>
      <cc:Work
         rdf:about="">
        <dc:format>image/svg+xml</dc:format>
        <dc:type
           rdf:resource="http://purl.org/dc/dcmitype/StillImage" />
        <dc:title></dc:title>
      </cc:Work>
    </rdf:RDF>
  </metadata>
  <g
     inkscape:label="Layer 1"
     inkscape:groupmode="layer"
     id="layer1">
    <path
       sodipodi:type="arc"
       style="color:#000000;fill:#008000;fill-opacity:1;fill-rule:evenodd;stroke:none;stroke-width:10;marker:none;visibility:visible;display:inline;overflow:visible;enable-background:accumulate"
       id="path2989"
       sodipodi:cx="531.42859"
       sodipodi:cy="646.64789"
       sodipodi:rx="262.85715"
       sodipodi:ry="262.85715"
       d="m 794.28574,646.64789 a 262.85715,262.85715 0 1 1 -525.7143,0 262.85715,262.85715 0 1 1 525.7143,0 z"
       transform="translate(-132,-176)" />
    <path
       transform="matrix(0.37989136,0,0,0.37989136,-12.456511,214.99204)"
       d="m 794.28574,646.64789 a 262.85715,262.85715 0 1 1 -525.7143,0 262.85715,262.85715 0 1 1 525.7143,0 z"
       sodipodi:ry="262.85715"
       sodipodi:rx="262.85715"
       sodipodi:cy="646.64789"
       sodipodi:cx="531.42859"
       id="path2991"
       style="color:#000000;fill:#008000;fill-opacity:1;fill-rule:evenodd;stroke:none;stroke-width:10;marker:none;visibility:visible;display:inline;overflow:visible;enable-background:accumulate"
       sodipodi:type="arc" />
    <path
       sodipodi:type="arc"
       style="color:#000000;fill:#ffffff;fill-opacity:1;fill-rule:evenodd;stroke:none;stroke-width:10;marker:none;visibility:visible;display:inline;overflow:visible;enable-background:accumulate"
       id="path2997"
       sodipodi:cx="531.42859"
       sodipodi:cy="646.64789"
       sodipodi:rx="262.85715"
       sodipodi:ry="262.85715"
       d="m 794.28574,646.64789 a 262.85715,262.85715 0 1 1 -525.7143,0 262.85715,262.85715 0 1 1 525.7143,0 z"
       transform="matrix(0.28097826,0,0,0.28097826,40.108705,278.95386)" />
    <path
       transform="matrix(0.14402166,0,0,0.14402166,112.89132,367.51639)"
       d="m 794.28574,646.64789 a 262.85715,262.85715 0 1 1 -525.7143,0 262.85715,262.85715 0 1 1 525.7143,0 z"
       sodipodi:ry="262.85715"
       sodipodi:rx="262.85715"
       sodipodi:cy="646.64789"
       sodipodi:cx="531.42859"
       id="path2999"
       style="color:#000000;fill:#000000;fill-opacity:1;fill-rule:evenodd;stroke:none;stroke-width:10;marker:none;visibility:visible;display:inline;overflow:visible;enable-background:accumulate"
       sodipodi:type="arc" />
    <path
       sodipodi:type="arc"
       style="color:#000000;fill:#ffffff;fill-opacity:1;fill-rule:evenodd;stroke:none;stroke-width:10;marker:none;visibility:visible;display:inline;overflow:visible;enable-background:accumulate"
       id="path3001"
       sodipodi:cx="531.42859"
       sodipodi:cy="646.64789"
       sodipodi:rx="262.85715"
       sodipodi:ry="262.85715"
       d="m 794.28574,646.64789 a 262.85715,262.85715 0 1 1 -525.7143,0 262.85715,262.85715 0 1 1 525.7143,0 z"
       transform="matrix(0.04510856,0,0,0.04510856,179.45656,419.47821)" />
    <path
       sodipodi:type="arc"
       style="color:#000000;fill:#008000;fill-opacity:1;fill-rule:evenodd;stroke:none;stroke-width:10;marker:none;visibility:visible;display:inline;overflow:visible;enable-background:accumulate"
       id="path3003"
       sodipodi:cx="531.42859"
       sodipodi:cy="646.64789"
       sodipodi:rx="262.85715"
       sodipodi:ry="262.85715"
       d="m 794.28574,646.64789 a 262.85715,262.85715 0 1 1 -525.7143,0 262.85715,262.85715 0 1 1 525.7143,0 z"
       transform="matrix(0.37989136,0,0,0.37989136,394.83699,214.99204)" />
    <path
       transform="matrix(0.28097826,0,0,0.28097826,447.40221,278.95386)"
       d="m 794.28574,646.64789 a 262.85715,262.85715 0 1 1 -525.7143,0 262.85715,262.85715 0 1 1 525.7143,0 z"
       sodipodi:ry="262.85715"
       sodipodi:rx="262.85715"
       sodipodi:cy="646.64789"
       sodipodi:cx="531.42859"
       id="path3005"
       style="color:#000000;fill:#ffffff;fill-opacity:1;fill-rule:evenodd;stroke:none;stroke-width:10;marker:none;visibility:visible;display:inline;overflow:visible;enable-background:accumulate"
       sodipodi:type="arc" />
    <path
       sodipodi:type="arc"
       style="color:#000000;fill:#000000;fill-opacity:1;fill-rule:evenodd;stroke:none;stroke-width:10;marker:none;visibility:visible;display:inline;overflow:visible;enable-background:accumulate"
       id="path3007"
       sodipodi:cx="531.42859"
       sodipodi:cy="646.64789"
       sodipodi:rx="262.85715"
       sodipodi:ry="262.85715"
       d="m 794.28574,646.64789 a 262.85715,262.85715 0 1 1 -525.7143,0 262.85715,262.85715 0 1 1 525.7143,0 z"
       transform="matrix(0.14402166,0,0,0.14402166,520.18483,367.51639)" />
    <path
       transform="matrix(0.04510856,0,0,0.04510856,586.75007,419.47821)"
       d="m 794.28574,646.64789 a 262.85715,262.85715 0 1 1 -525.7143,0 262.85715,262.85715 0 1 1 525.7143,0 z"
       sodipodi:ry="262.85715"
       sodipodi:rx="262.85715"
       sodipodi:cy="646.64789"
       sodipodi:cx="531.42859"
       id="path3009"
       style="color:#000000;fill:#ffffff;fill-opacity:1;fill-rule:evenodd;stroke:none;stroke-width:10;marker:none;visibility:visible;display:inline;overflow:visible;enable-background:accumulate"
       sodipodi:type="arc" />
    <path
       style="color:#000000;fill:#005000;fill-opacity:1;fill-rule:evenodd;stroke:none;stroke-width:10;marker:none;visibility:visible;display:inline;overflow:visible;enable-background:accumulate"
       d="m 248.69827,346.79674 c 0,9.6682 -0.29491,10.62708 -7.21861,14.00233 -6.92371,3.37531 -60.44984,-0.12902 -68.27686,-1.89987 -7.82703,-1.77086 48.75393,-44.4844 64.82387,-36.6503 16.07,7.83405 10.6716,14.87968 10.6716,24.54784 z"
       id="path3011"
       inkscape:connector-curvature="0"
       sodipodi:nodetypes="sssss" />
    <path
       sodipodi:nodetypes="sssss"
       inkscape:connector-curvature="0"
       id="path3784"
       d="m 553.33576,346.79674 c 0,9.6682 0.29491,10.62708 7.21861,14.00233 6.92371,3.37531 60.44984,-0.12902 68.27686,-1.89987 7.82703,-1.77086 -48.75393,-44.4844 -64.82387,-36.6503 -16.07,7.83405 -10.6716,14.87968 -10.6716,24.54784 z"
       style="color:#000000;fill:#005000;fill-opacity:1;fill-rule:evenodd;stroke:none;stroke-width:10;marker:none;visibility:visible;display:inline;overflow:visible;enable-background:accumulate" />
    <path
       style="color:#000000;fill:#005000;fill-opacity:1;fill-rule:evenodd;stroke:none;stroke-width:10;marker:none;visibility:visible;display:inline;overflow:visible;enable-background:accumulate"
       d="m 559.85716,573.91115 c 0,68.20305 -74.5127,97.04674 -166.42858,97.04674 -91.91588,0 -166.42857,-28.84369 -166.42857,-97.04674 0,-68.20322 74.51269,2.45066 166.42857,2.45066 91.91588,0 166.42858,-70.65388 166.42858,-2.45066 z"
       id="path3788"
       inkscape:connector-curvature="0"
       sodipodi:nodetypes="sssss" />
    <path
       sodipodi:nodetypes="sssss"
       inkscape:connector-curvature="0"
       id="path3791"
       d="m 495.85716,554.86215 c 30.54534,-8.1846 7.14111,73.72748 -102.42858,73.72748 -109.56969,0 -131.04206,-81.39444 -100.49672,-73.20984 30.54542,8.18462 43.92703,20.99062 100.49672,20.99062 56.56969,0 71.88316,-13.32364 102.42858,-21.50826 z"
       style="color:#000000;fill:#ffffff;fill-opacity:1;fill-rule:evenodd;stroke:none;stroke-width:10;marker:none;visibility:visible;display:inline;overflow:visible;enable-background:accumulate" />
    <path
       style="color:#000000;fill:#005000;fill-opacity:1;fill-rule:evenodd;stroke:none;stroke-width:10;marker:none;visibility:visible;display:inline;overflow:visible;enable-background:accumulate"
       d="m 480.00001,206.36218 c 23.1935,0 230.41123,76 -80.00001,76 -310.411237,0 -103.19351,-76 -80.00001,-76 23.19351,0 -19.41123,-132.000004 80.00001,-132.000004 99.41124,0 56.8065,132.000004 80.00001,132.000004 z"
       id="path3793"
       inkscape:connector-curvature="0"
       sodipodi:nodetypes="sssss" />
  </g>
</svg>
